<?xml version="1.0" encoding="UTF-8" standalone="no"?>
<!-- Created with Inkscape (http://www.inkscape.org/) -->

<svg
   xmlns:dc="http://purl.org/dc/elements/1.1/"
   xmlns:cc="http://creativecommons.org/ns#"
   xmlns:rdf="http://www.w3.org/1999/02/22-rdf-syntax-ns#"
   xmlns:svg="http://www.w3.org/2000/svg"
   xmlns="http://www.w3.org/2000/svg"
   xmlns:sodipodi="http://sodipodi.sourceforge.net/DTD/sodipodi-0.dtd"
   xmlns:inkscape="http://www.inkscape.org/namespaces/inkscape"
   width="150"
   height="150"
   viewBox="0 0 39.687516 39.687499"
   version="1.1"
   id="svg8413"
   sodipodi:docname="New logo 150-150 BLUE.svg"
   inkscape:version="0.92.4 (5da689c313, 2019-01-14)"
   style="enable-background:new">
  <defs
     id="defs8407">
    <filter
       inkscape:collect="always"
       style="color-interpolation-filters:sRGB"
       id="filter10149">
      <feBlend
         inkscape:collect="always"
         mode="color"
         in2="BackgroundImage"
         id="feBlend10151" />
    </filter>
  </defs>
  <sodipodi:namedview
     id="base"
     pagecolor="#ffffff"
     bordercolor="#666666"
     borderopacity="1.0"
     inkscape:pageopacity="0.0"
     inkscape:pageshadow="2"
     inkscape:zoom="3.2739478"
     inkscape:cx="69.736092"
     inkscape:cy="30.161682"
     inkscape:document-units="mm"
     inkscape:current-layer="g10174"
     showgrid="false"
     inkscape:window-width="1920"
     inkscape:window-height="986"
     inkscape:window-x="-11"
     inkscape:window-y="-11"
     inkscape:window-maximized="1"
     units="px"
     scale-x="1.7"
     fit-margin-top="0"
     fit-margin-left="0"
     fit-margin-right="0"
     fit-margin-bottom="0"
     inkscape:pagecheckerboard="true" />
  <metadata
     id="metadata8410">
    <rdf:RDF>
      <cc:Work
         rdf:about="">
        <dc:format>image/svg+xml</dc:format>
        <dc:type
           rdf:resource="http://purl.org/dc/dcmitype/StillImage" />
        <dc:title></dc:title>
      </cc:Work>
    </rdf:RDF>
  </metadata>
  <g
     inkscape:label="Layer 1"
     inkscape:groupmode="layer"
     id="layer1"
     transform="translate(-7.4901161,-192.61692)">
    <g
       id="g8437"
       transform="matrix(0.03527778,0,0,-0.03527778,24.946425,171.64945)"
       style="fill:#000000;stroke:none">
      <g
         id="g10061"
         transform="matrix(4.9268265,0,0,4.9268265,-8879.7046,11976.184)">
        <g
           id="svgg"
           transform="matrix(7.4999995,0,0,-7.4999995,1317.8572,-964.5701)"
           style="fill:#a52a2a;stroke:none">
          <g
             id="g10046"
             transform="rotate(38.1,135.73136,175.85636)"
             style="opacity:0.68000034;filter:url(#filter10149)">
            <g
               id="g10064" />
            <g
               id="g10095"
               transform="matrix(0.05547944,0.00362888,0.00362888,0.05726212,102.93373,263.44675)">
              <g
                 id="g10085">
                <g
                   id="g10174"
                   transform="matrix(24.318019,0,0,24.318019,-2555.9645,-6614.1305)">
                  <g
                     style="fill:#0076c5;fill-opacity:1"
                     id="g10076"
                     transform="matrix(0.14123231,-0.00542211,-0.00542211,0.13856871,95.370898,243.46622)">
                    <g
                       style="fill:#0076c5;fill-opacity:1"
                       id="g10072">
                      <path
                         sodipodi:nodetypes="cccccssccccccccccssccccccsccccccscccccccsscccsccccccccccccccccscsccccccccccccscscccssssccccscccccccsccccccccccc"
                         d="m 129.23451,110.3497 c -3.178,0.353 -5.513,0.704 -7.321,1.102 -0.654,0.144 -1.668,0.36 -2.253,0.481 -1.072,0.221 -4.124,1.232 -7.822,2.59 -2.518,0.925 -7.097,3.124 -9.252,4.444 -0.905,0.553 -1.756,1.007 -1.892,1.007 -0.135,0 -0.246,0.094 -0.246,0.21 0,0.115 -0.287,0.341 -0.637996,0.501 -3.281,1.495 -11.074,8.516 -16.1,14.505 -3.228,3.845 -8.024,12.036 -9.779,16.699 -0.311,0.826 -0.655,1.727 -0.765,2.002 -1.079,2.699 -2.419,7.808 -3.087,11.765 -1.333,7.905 -1.211,17.094 0.329,24.656 0.755,3.708 0.637,3.688 3.931,0.68 3.073,-2.806 3.227,-3.06 2.85,-4.694 -0.905,-3.921 -0.905,-12.675 -0.001,-18.515 0.597,-3.852 2.638,-11.415 3.274,-12.127 0.116,-0.131 0.212,-0.389 0.212,-0.573 0,-0.184 0.545,-1.485 1.212,-2.891 0.667,-1.406 1.258,-2.678 1.314,-2.827 0.056,-0.15 0.697,-1.276 1.425,-2.504 4.046,-6.826 9.149,-12.512 15.949996,-17.773 3.95,-3.056 11.252,-6.933 15.917,-8.452 2.249,-0.732 4.382,-1.357 5.233,-1.533 0.482,-0.1 1.327,-0.286 1.877,-0.414 0.551,-0.127 1.734,-0.341 2.629,-0.475 0.895,-0.134 2.246,-0.348 3.003,-0.475 0.758,-0.128 3.855,-0.234 6.884,-0.237 5.416,-0.006 6.724,0.118 12.766,1.211 1.839,0.332 5.204,1.255 6.508,1.783 0.275,0.112 1.034,0.376 1.686,0.587 0.651,0.211 2.141,0.836 3.311,1.389 1.17,0.554 2.181,1.006 2.248,1.006 0.268,0 5.158,2.911 7.273,4.33 5.163,3.462 10.413,8.535 14.331,13.849 1.781,2.416 2.379,1.287 -5.82,10.998 -3.104,3.677 -8.412,9.388 -9.824,10.57 -1.856,1.553 -6.395,2.78 -10.43,2.818 -1.529,0.015 -5.636,0.592 -7.03,0.988 -1.547,0.44 -2.487,0.649 -6.133,1.36 -6.664,1.301 -7.192,1.395 -7.797,1.395 -0.899,0 -1.214,0.458 -1.214,1.763 0,2.966 2.545,3.337 11.962,1.743 2.849,-0.482 5.061,0.808 5.058,2.948 -0.003,1.251 -0.341,1.707 -4.257,5.738 -14.071,14.482 -19.4801,21.85004 -16.5401,21.85004 1.434,0 3.0301,-1.30604 10.5351,-8.53304 2.685,-2.585 5.319,-5.046 5.855,-5.468 1.714,-1.351 2.467,-0.816 1.374,0.977 -0.675,1.107 -6.303,8.161 -6.996,8.769 -0.201,0.177 -3.805,4.663 -5.701,7.097 -2.5,3.21001 -2.981,4.67401 -1.693,5.15901 1.228,0.462 5.874,-3.57901 9.199,-8.00001 0.363,-0.482 0.869,-1.117 1.125,-1.41 0.257,-0.294 1.143,-1.356 1.969,-2.361 2.378,-2.894 6.189,-6.747 6.832,-6.909 1.857,-0.466 1.017,1.449 -2.271,5.178 -0.306,0.347 -1.681,1.98 -3.056,3.629 -1.375,1.65 -2.802,3.337 -3.171,3.75 -2.918,3.266 -4.3971,6.91905 -3.3181,7.26205 1.155,0.366 3.3691,-1.73304 12.5651,-11.53405 6.837,-7.287 8.029,-7.122 4.284,0.595 -4.644,9.57201 -5.53296,10.17211 -3.88496,10.17211 0.962,0 2.35596,-0.2091 4.10096,-2.77811 1.013,-1.493 4.314,-6.818 4.314,-6.96 0,-0.247 3.122,-5.071 3.49,-5.393 0.078,-0.069 0.474,-0.576 0.879,-1.126 0.405,-0.551 1.756,-2.172 3.002,-3.603 4.619,-5.303 5.092,-6 6.379,-9.414 0.312,-0.826 0.658,-1.727 0.768,-2.002 0.111,-0.275 0.448,-1.177 0.749,-2.003 2.648,-7.27 2.851,-7.556 10.401,-14.643 3.893,-3.654 3.787,-3.631 4.33,-0.954 0.177,0.869 0.426,2.03 0.554,2.581 1.295,5.555 1.283,16.204 -0.025,22.278 -1.881,8.736 -4.404,14.929 -8.88,21.79701 -3.721,5.708 -9.517,11.58 -16.104,16.313 -0.814,0.585 -1.547,1.064 -1.629,1.064 -0.082,0 -0.743,0.379 -1.468,0.842 -1.935,1.234 -7.802,4.164 -8.339,4.164 -0.09,0 -0.519,0.162 -0.953,0.361 -1.775,0.812 -5.35,1.848 -9.549,2.769 -10.304,2.26 -25.308,0.789 -34.55,-3.387 -0.685,-0.309 -1.949,-0.885 -2.81,-1.279 -0.861,-0.394 -1.627,-0.717 -1.702,-0.717 -0.075,0 -0.753,-0.394 -1.506,-0.876 -0.753,-0.482 -1.432,-0.876 -1.509,-0.876 -0.2,0 -3.732,-2.383 -5.372,-3.625 -4.194996,-3.176 -7.880996,-6.698 -10.247996,-9.791 -1.302,-1.701 -1.809,-1.637 -3.382,0.427 -3.269,4.288 -3.358,3.439 0.816,7.753 4.056,4.192 12.347,10.993 13.401996,10.993 0.069,0 0.842,0.433 1.716,0.962 1.734,1.048 5.931,3.156 7.723,3.879 0.619,0.25 1.352,0.547 1.627,0.66 0.707,0.291 1.643,0.596 4.506,1.469 11.012,3.359 23.273,3.874 33.792,1.42 0.964,-0.225 2.034,-0.469 2.378,-0.542 1.242,-0.265 7.139,-2.164 7.372,-2.375 0.13,-0.119 0.381,-0.216 0.556,-0.216 1.078,0 9.689,-4.513 12.879,-6.748 3.101,-2.174 4.459,-3.186 5.668,-4.223 10.9,-9.344 18.022,-20.57801 21.847,-34.46101 1.593,-5.78 2.491,-15.125 2.021,-21.026 -0.529,-6.631 -1.038,-9.432 -2.774,-15.269 -2.459,-8.264 -7.703,-18.22 -12.146,-23.056 -0.14,-0.152 -0.906,-1.014 -1.703,-1.916 -6.895,-7.805 -17.005,-14.874 -25.988,-18.173 -3.655,-1.342 -6.988,-2.393 -8.483,-2.674 -0.482,-0.091 -1.327,-0.266 -1.877,-0.39 -6.178,-1.39 -14.351,-1.815 -20.902,-1.087"
                         id="path2"
                         inkscape:connector-curvature="0"
                         style="fill:#0076c5;fill-opacity:1;fill-rule:evenodd;stroke:none" />
                    </g>
                  </g>
                  <path
                     d="m 112.76991,262.18833 c -0.13775,0.0714 -0.7927,0.69968 -1.389,1.33219 -1.36887,1.45221 -1.57073,1.48611 -0.84874,0.14272 0.50373,-0.93736 0.63473,-1.29357 0.51194,-1.39205 -0.0934,-0.0749 -0.3229,0.13222 -0.61937,0.55882 -0.0952,0.13703 -0.18975,0.26851 -0.21014,0.29226 -0.0205,0.0239 -0.0375,0.0499 -0.0378,0.0578 -8.7e-4,0.0222 -0.32274,0.53194 -0.59788,0.94651 -0.25402,0.38319 -0.58357,0.78657 -1.08022,1.32297 -0.46823,0.50556 -0.64917,0.81939 -0.99062,1.71773 -0.022,0.058 -0.0557,0.14105 -0.0749,0.18468 -0.0192,0.0436 -0.0493,0.11493 -0.0668,0.1585 -0.21044,0.51973 -0.37956,0.74788 -0.94687,1.27717 -0.8091,0.75496 -1.60005,1.4893 -2.07842,1.92995 -0.15098,0.13917 -0.39854,0.36798 -0.54999,0.50842 -0.15145,0.14044 -0.41537,0.38371 -0.5865,0.54054 -0.17113,0.15682 -0.4266,0.39299 -0.5677,0.52487 -0.14096,0.13187 -0.33462,0.30949 -0.43019,0.39479 -0.0956,0.0852 -0.17442,0.17246 -0.17526,0.19407 -0.003,0.0867 2.00225,2.00601 2.05676,1.96822 0.029,-0.0201 0.32447,-0.36735 0.65675,-0.7718 0.77679,-0.9455 1.27816,-1.54849 1.60444,-1.92961 0.57692,-0.67396 1.22399,-1.42188 1.33299,-1.54049 0.0635,-0.0691 0.25418,-0.279 0.42397,-0.4665 0.98781,-1.09126 1.17744,-1.20535 2.20821,-1.32919 0.64197,-0.0771 1.01394,-0.14076 1.18659,-0.20315 0.15249,-0.0551 0.5914,-0.1684 0.89023,-0.22982 0.0979,-0.0202 0.266,-0.055 0.37378,-0.0776 0.10763,-0.0225 0.2518,-0.0526 0.32032,-0.0667 0.53698,-0.1111 0.5699,-0.13049 0.57822,-0.34333 0.014,-0.35848 -0.56009,-0.42624 -1.59461,-0.18852 -0.44995,0.10333 -0.51525,0.0927 -0.70524,-0.1153 -0.2253,-0.24649 -0.16582,-0.35739 0.60875,-1.13441 0.47557,-0.47706 1.03719,-1.06286 1.27833,-1.33306 0.0392,-0.0438 0.16247,-0.18043 0.27417,-0.3033 0.63709,-0.70173 0.96578,-1.17475 0.97252,-1.34713 0.013,-0.33132 -0.36527,-0.0768 -1.5876,1.08282 -1.07735,1.0222 -1.24796,1.15147 -1.20394,0.91291 0.0229,-0.12444 0.38566,-0.59025 1.02823,-1.32028 1.01463,-1.15303 1.33783,-1.61292 1.25113,-1.78045 -0.0854,-0.16512 -0.36801,-0.005 -0.82998,0.47061 -0.3553,0.36563 -0.37668,0.3897 -0.83051,0.92722 -0.64724,0.7666 -1.16113,1.28594 -1.25829,1.27141 -0.14596,-0.0216 -0.082,-0.17229 0.23189,-0.54546 0.29891,-0.35544 1.02312,-1.19349 1.06261,-1.22959 0.0184,-0.0168 0.19572,-0.24481 0.41623,-0.53539 0.3335,-0.43937 0.3298,-0.70889 -0.007,-0.53406"
                     id="path1"
                     inkscape:connector-curvature="0"
                     style="fill:#0076c5;fill-opacity:1;fill-rule:evenodd;stroke:none;stroke-width:0.13978906"
                     sodipodi:nodetypes="cccsccscccscccssccsccccccccccscccccscccsccccccc" />
                  <path
                     d="m 113.18717,257.9649 c -0.38405,0.0482 -0.87849,0.13888 -1.17325,0.21523 -0.50204,0.12996 -0.68626,0.18546 -1.05384,0.31704 -0.39173,0.14012 -0.48417,0.17784 -0.86085,0.35128 -0.47936,0.22069 -1.38218,0.74362 -1.60898,0.93192 -0.0392,0.0325 -0.20461,0.15825 -0.36757,0.27935 -1.13188,0.84096 -2.20054,2.09541 -2.86838,3.36699 -0.23405,0.44565 -0.37578,0.74137 -0.3776,0.78779 -9.5e-4,0.0242 -0.016,0.0596 -0.0335,0.0784 -0.12084,0.12958 -0.43128,1.2048 -0.62655,2.16961 -0.0762,0.37636 -0.13601,1.91543 -0.0897,2.30645 0.14526,1.22528 0.18251,1.31489 0.45038,1.0824 0.71295,-0.61886 0.78017,-0.70778 0.74951,-0.99093 -0.29415,-2.71427 0.70584,-5.33461 2.79647,-7.32785 0.31743,-0.3026 0.52554,-0.48548 0.55496,-0.48758 0.0131,-9.2e-4 0.0457,-0.0224 0.0724,-0.0475 0.0933,-0.0883 0.52046,-0.39881 0.64665,-0.4702 0.0699,-0.0395 0.21687,-0.12926 0.32636,-0.19932 0.29796,-0.19062 0.793,-0.43349 1.2956,-0.63556 0.24658,-0.0991 0.48545,-0.19615 0.53078,-0.2156 0.0453,-0.0195 0.1206,-0.0367 0.16706,-0.0385 0.0466,-0.002 0.0937,-0.0172 0.10484,-0.034 0.0111,-0.017 0.0884,-0.0431 0.17206,-0.0581 0.0835,-0.015 0.23195,-0.0461 0.33002,-0.0693 0.76607,-0.18133 1.96868,-0.27856 2.60273,-0.21047 0.78907,0.0847 1.10385,0.14178 1.55977,0.28242 0.13418,0.0415 0.33043,0.10035 0.43599,0.13089 0.62273,0.18045 1.60637,0.70969 2.22997,1.19962 0.57831,0.45445 1.46694,1.41501 1.55146,1.67686 0.0153,0.0478 -0.24034,0.39761 -0.38529,0.52687 -0.0111,0.01 -0.12731,0.14684 -0.25827,0.30421 -0.13096,0.1575 -0.26345,0.31063 -0.29451,0.34032 -0.0309,0.0298 -0.15545,0.16702 -0.27649,0.30505 -0.3876,0.44158 -1.06341,1.13816 -1.27285,1.31182 -0.26716,0.22167 -1.03269,0.4218 -1.71371,0.44795 -0.19787,0.008 -0.4531,0.0647 -0.93954,0.21054 -0.15725,0.0471 -0.37375,0.10221 -0.48144,0.12239 -0.10754,0.0202 -0.2757,0.0543 -0.37356,0.0758 -0.0979,0.0215 -0.29013,0.0625 -0.42719,0.0911 -0.73013,0.15297 -0.70238,0.13585 -0.69811,0.4304 0.006,0.40919 0.47864,0.49328 1.50045,0.26685 0.55805,-0.12354 0.75125,-0.0875 0.8481,0.15824 0.073,0.18537 0.007,0.30234 -0.40458,0.71342 -1.27403,1.27354 -2.59582,2.71177 -2.60042,2.82941 -4.4e-4,0.0112 -0.0595,0.10177 -0.13142,0.20152 -0.28719,0.3983 -0.0168,0.65592 0.34804,0.33157 0.0358,-0.0318 0.15514,-0.12661 0.26504,-0.2108 0.24873,-0.19011 0.37609,-0.30596 1.21411,-1.10438 1.07942,-1.0285 1.16071,-0.93283 0.16367,0.19241 -0.39569,0.44646 -0.47824,0.54164 -0.59086,0.68072 -0.0637,0.0787 -0.16926,0.20629 -0.23462,0.28366 -0.0652,0.0773 -0.21071,0.24953 -0.32295,0.38251 -0.43209,0.51178 -0.53331,0.81729 -0.30254,0.91317 0.179,0.0745 0.61856,-0.26435 1.18913,-0.91663 0.43149,-0.49308 0.79672,-0.91789 0.8776,-1.02076 0.0463,-0.0589 0.2347,-0.25695 0.41857,-0.44028 0.67766,-0.67534 0.47911,-0.26841 -0.26938,0.55216 -0.953,1.04482 -1.45316,1.76828 -1.3543,1.95916 0.0949,0.18356 0.45286,-0.0408 1.08626,-0.68065 0.62443,-0.63069 0.6832,-0.69106 0.87773,-0.9015 1.0066,-1.08852 1.13544,-1.0943 0.55503,-0.0248 -0.64743,1.19318 -0.7574,1.71874 -0.30753,1.46958 0.21204,-0.11745 0.76081,-0.83627 1.04731,-1.37179 0.0364,-0.0681 0.11365,-0.19074 0.17142,-0.27251 0.0579,-0.0819 0.10553,-0.15611 0.10588,-0.16512 9e-4,-0.023 0.24697,-0.36866 0.3462,-0.48648 0.0456,-0.0541 0.14099,-0.16854 0.21233,-0.25458 0.0713,-0.086 0.25518,-0.29385 0.4087,-0.4619 0.15351,-0.16791 0.31126,-0.34305 0.35057,-0.38897 0.0393,-0.0459 0.10902,-0.12663 0.1548,-0.17917 0.10173,-0.11681 0.34894,-0.57459 0.35196,-0.65177 0.001,-0.0309 0.0184,-0.0664 0.0384,-0.0789 0.0199,-0.0125 0.037,-0.0454 0.0381,-0.0731 0.001,-0.0277 0.0353,-0.11771 0.0761,-0.19994 0.0407,-0.0824 0.10157,-0.22431 0.13517,-0.31553 0.1234,-0.33529 0.32017,-0.74367 0.48962,-1.01624 0.0425,-0.0685 0.4514,-0.47199 0.8389,-0.82806 0.0541,-0.0497 0.20952,-0.19372 0.34561,-0.32001 0.29356,-0.27264 0.29633,-0.2715 0.37186,0.15895 0.18206,1.03777 0.13457,2.31279 -0.12403,3.32458 -0.15869,0.62111 -0.16243,0.6337 -0.25484,0.85821 -0.0478,0.11613 -0.0962,0.24278 -0.10775,0.28128 -0.0114,0.0385 -0.045,0.12002 -0.0746,0.18121 -0.0296,0.0612 -0.054,0.11871 -0.0544,0.12786 -3.5e-4,0.009 -0.0866,0.18416 -0.19178,0.38923 -0.10504,0.20494 -0.19128,0.37967 -0.19161,0.38827 -10e-4,0.0283 -0.50931,0.79852 -0.59065,0.89517 -0.0166,0.0197 -0.0709,0.092 -0.12051,0.16056 -0.4019,0.55476 -1.30901,1.43594 -1.89646,1.8423 -0.0967,0.0668 -0.19648,0.14148 -0.22169,0.16583 -0.0253,0.0245 -0.0782,0.0556 -0.1175,0.0691 -0.0392,0.0135 -0.0719,0.0393 -0.0726,0.057 -6.9e-4,0.0179 -0.0215,0.0332 -0.0463,0.0342 -0.0247,9.4e-4 -0.13427,0.0617 -0.24347,0.13511 -0.1974,0.13266 -0.71382,0.40665 -0.9424,0.49997 -0.0658,0.0269 -0.17616,0.0729 -0.24529,0.10239 -0.51887,0.22124 -1.20853,0.43589 -1.67955,0.52259 -0.14659,0.0271 -0.35562,0.0678 -0.46453,0.0903 -1.05311,0.21919 -2.85282,0.0319 -4.12862,-0.42953 -1.14064,-0.41266 -2.79883,-1.63603 -3.31501,-2.44568 -0.0408,-0.064 -0.15344,8e-5 -0.27679,0.15756 -0.0692,0.0883 -0.15351,0.19324 -0.18738,0.23328 -0.27972,0.32993 -0.33971,0.41428 -0.34232,0.48107 -0.006,0.16158 0.79285,0.95068 1.56534,1.54558 0.25121,0.19347 0.94971,0.61065 1.30883,0.78158 0.14287,0.0681 0.27535,0.13484 0.29414,0.14837 0.0189,0.0134 0.19881,0.0838 0.39988,0.15636 0.20108,0.0725 0.39685,0.14374 0.43507,0.15804 1.2223,0.45934 3.3588,0.57351 4.84351,0.25875 0.60136,-0.12742 1.52015,-0.40247 1.83786,-0.55012 0.08,-0.0373 0.20194,-0.0899 0.27084,-0.11721 0.14281,-0.0565 0.79064,-0.38069 0.9542,-0.47731 0.0596,-0.0354 0.22211,-0.12987 0.36119,-0.20993 0.22767,-0.13133 0.58696,-0.37217 0.63431,-0.42532 0.0102,-0.0115 0.0757,-0.06 0.14553,-0.10811 0.23825,-0.16383 0.71011,-0.57116 1.06747,-0.92123 1.01813,-0.99737 1.68414,-1.96615 2.31129,-3.36166 0.10287,-0.22892 0.27568,-0.70598 0.27809,-0.76764 9.5e-4,-0.0242 0.0185,-0.072 0.0388,-0.10582 0.15322,-0.2541 0.38776,-1.62056 0.42324,-2.46606 0.0346,-0.82263 0.006,-1.23455 -0.14428,-2.08979 -0.015,-0.0851 -0.0341,-0.20526 -0.0426,-0.26706 -0.008,-0.0618 -0.029,-0.12037 -0.0458,-0.1301 -0.017,-0.01 -0.0296,-0.0487 -0.0281,-0.0862 0.006,-0.15866 -0.35819,-1.22167 -0.48108,-1.40388 -0.0333,-0.0492 -0.0599,-0.10631 -0.0591,-0.12682 0.003,-0.0867 -0.39581,-0.78301 -0.71155,-1.24089 -0.40501,-0.58729 -1.19662,-1.43259 -1.63574,-1.74655 -0.0697,-0.0499 -0.15741,-0.11806 -0.19503,-0.15149 -0.0375,-0.0336 -0.19194,-0.14372 -0.34339,-0.24485 -0.1513,-0.10129 -0.28284,-0.19226 -0.29204,-0.20228 -0.0161,-0.0175 -0.0809,-0.054 -0.27634,-0.1564 -0.0475,-0.0249 -0.16424,-0.0876 -0.25924,-0.13947 -0.15656,-0.0856 -0.53639,-0.26056 -0.9015,-0.41534 -0.55071,-0.23358 -1.69866,-0.52088 -2.03013,-0.50816 -0.0644,0.002 -0.12502,-0.009 -0.13469,-0.0249 -0.01,-0.0161 -0.13318,-0.0346 -0.27408,-0.0411 -0.14091,-0.006 -0.41479,-0.0206 -0.60855,-0.0314 -0.41143,-0.0232 -1.06719,0.002 -1.52012,0.0593 m 1.79973,0.0136 c 0.43835,0.031 0.67895,0.0592 0.9839,0.11525 0.077,0.0142 0.1954,0.0339 0.26298,0.0439 0.20962,0.0308 0.67465,0.15839 1.18358,0.32453 1.2508,0.40844 2.64033,1.33316 3.5718,2.3773 0.10768,0.12067 0.21119,0.23596 0.23013,0.25627 0.70994,0.76292 1.463,2.37358 1.74347,3.72912 0.21372,1.03255 0.20194,2.34272 -0.032,3.58588 -0.3484,1.85108 -1.51815,3.92657 -2.97291,5.27443 -0.53029,0.49134 -0.67648,0.60902 -1.33435,1.0744 -0.46265,0.327 -1.70327,0.99905 -1.85552,1.0049 -0.0247,9.4e-4 -0.0607,0.0158 -0.0797,0.0329 -0.0341,0.0305 -0.87719,0.32562 -1.05404,0.36907 -0.049,0.012 -0.20142,0.0516 -0.33879,0.088 -1.49893,0.39708 -3.22779,0.3922 -4.76482,-0.0135 -0.39962,-0.10545 -0.53016,-0.14264 -0.62843,-0.17913 -0.0382,-0.0142 -0.14014,-0.0514 -0.22621,-0.0826 -0.24917,-0.0905 -0.83049,-0.35982 -1.0697,-0.49563 -0.12057,-0.0686 -0.2274,-0.12438 -0.23714,-0.124 -0.149,0.006 -1.28308,-0.89173 -1.83319,-1.45062 -0.56611,-0.57516 -0.55815,-0.45799 -0.0732,-1.0699 0.23335,-0.29454 0.3053,-0.30615 0.47996,-0.0775 0.31753,0.41576 0.81902,0.88381 1.39426,1.30116 0.22489,0.16321 0.7108,0.47427 0.73905,0.47319 0.0109,-4.2e-4 0.10464,0.0505 0.20837,0.1132 0.10373,0.0627 0.19735,0.11363 0.20795,0.11322 0.0106,-4e-4 0.11702,0.0402 0.23649,0.0901 0.11946,0.0499 0.29485,0.12289 0.38992,0.16199 1.28263,0.52855 3.3937,0.65103 4.86121,0.282 0.59803,-0.15039 1.10856,-0.31333 1.36365,-0.43547 0.0624,-0.0299 0.12384,-0.0547 0.13655,-0.0552 0.0758,-0.003 0.92034,-0.44073 1.20031,-0.62222 0.10491,-0.0681 0.20032,-0.12419 0.2119,-0.12463 0.0116,-4.5e-4 0.1177,-0.0708 0.23583,-0.15627 1.29876,-0.93966 2.24084,-1.99001 2.90322,-3.23717 0.40753,-0.76736 0.59765,-1.26514 0.83197,-2.17915 0.21766,-0.84876 0.2771,-2.32445 0.12432,-3.08717 -0.0151,-0.0757 -0.044,-0.23519 -0.0643,-0.35465 -0.0622,-0.368 -0.0471,-0.37176 -0.6167,0.15568 -1.10474,1.02297 -1.13496,1.0637 -1.54836,2.08545 -0.047,0.11609 -0.0995,0.24291 -0.11664,0.28162 -0.017,0.0387 -0.0708,0.16543 -0.11932,0.28158 -0.20028,0.48005 -0.27086,0.5792 -0.95197,1.33907 -0.18373,0.20505 -0.38333,0.43699 -0.44351,0.51554 -0.0602,0.0784 -0.11886,0.15081 -0.13025,0.16079 -0.0537,0.0466 -0.5208,0.732 -0.52214,0.76623 -7.7e-4,0.0197 -0.49585,0.77545 -0.64702,0.98783 -0.26038,0.36544 -0.3911,0.48779 -0.52696,0.49301 -0.23275,0.009 -0.17124,-0.16486 0.53655,-1.51642 0.57075,-1.08964 0.4033,-1.10604 -0.60182,-0.0592 -1.35191,1.40798 -1.76894,1.78373 -1.93008,1.73927 -0.15053,-0.0417 0.17112,-0.62878 0.60095,-1.09716 0.0543,-0.0592 0.26504,-0.30074 0.46818,-0.53683 0.20313,-0.23596 0.40618,-0.46969 0.45128,-0.51944 0.48459,-0.53455 0.61361,-0.80446 0.34881,-0.72982 -0.0917,0.0259 -0.65082,0.58051 -1.00236,0.99442 -0.1221,0.14374 -0.25299,0.2957 -0.29089,0.33783 -0.0377,0.042 -0.11265,0.13273 -0.16653,0.20149 -0.49357,0.63064 -1.17164,1.21578 -1.34257,1.15842 -0.17928,-0.0602 -0.10341,-0.26569 0.26708,-0.72405 0.28097,-0.34756 0.8143,-0.98872 0.84365,-1.01434 0.10117,-0.088 0.93427,-1.09598 1.0356,-1.25304 0.16409,-0.25438 0.0606,-0.32443 -0.18875,-0.12793 -0.078,0.0614 -0.46334,0.41668 -0.85657,0.78944 -1.09913,1.04213 -1.42458,1.30464 -1.62711,1.31242 -0.41522,0.0159 0.48162,-1.10725 2.54742,-3.1903 0.57492,-0.5798 0.62513,-0.64482 0.63234,-0.81819 0.012,-0.29655 -0.29339,-0.46331 -0.69837,-0.38107 -1.33863,0.27193 -1.69605,0.23433 -1.67997,-0.17667 0.007,-0.18083 0.0541,-0.246 0.18101,-0.25088 0.0855,-0.003 0.16053,-0.0192 1.10876,-0.23558 0.51879,-0.11829 0.65268,-0.15235 0.87355,-0.22171 0.19902,-0.0624 0.78219,-0.16465 0.99822,-0.17502 0.57008,-0.0271 1.21778,-0.22178 1.48833,-0.44704 0.20583,-0.17144 0.98646,-0.99159 1.44478,-1.51794 1.21062,-1.39009 1.12004,-1.23041 0.8816,-1.55553 -0.52453,-0.71511 -1.23849,-1.3896 -1.94891,-1.84134 -0.29101,-0.18516 -0.96585,-0.56202 -1.0037,-0.56056 -0.009,3.6e-4 -0.1498,-0.0568 -0.31204,-0.12721 -0.16224,-0.0703 -0.36929,-0.14882 -0.46008,-0.17452 -0.0909,-0.0257 -0.19671,-0.0582 -0.23494,-0.0722 -0.1813,-0.0661 -0.65155,-0.17575 -0.90947,-0.21178 -0.8474,-0.1187 -1.03146,-0.12879 -1.79641,-0.0986 -0.42781,0.0168 -0.86578,0.0483 -0.97353,0.0702 -0.1076,0.0217 -0.29956,0.0587 -0.42669,0.0821 -0.12713,0.0234 -0.29537,0.0595 -0.37388,0.0801 -0.0784,0.0207 -0.19872,0.0511 -0.26733,0.0675 -0.12115,0.029 -0.42579,0.12717 -0.74739,0.2408 -1.54537,0.54622 -3.13933,1.74999 -4.21238,3.18157 -0.20518,0.27367 -0.60249,0.87696 -0.64529,0.97988 -0.009,0.0209 -0.0991,0.20042 -0.20091,0.39886 -0.10183,0.19844 -0.18585,0.38168 -0.18685,0.40717 -10e-4,0.0255 -0.0159,0.0618 -0.033,0.0806 -0.0937,0.10211 -0.42294,1.16117 -0.52815,1.69818 -0.15934,0.81414 -0.2068,2.02717 -0.10025,2.56559 0.0444,0.22438 0.0213,0.26041 -0.42796,0.6659 -0.48153,0.43467 -0.46497,0.4368 -0.5515,-0.0729 -0.17649,-1.0395 -0.1439,-2.31215 0.0872,-3.41476 0.11579,-0.55194 0.33275,-1.26715 0.49977,-1.647 0.017,-0.0387 0.0705,-0.16542 0.1189,-0.28156 0.27315,-0.65567 0.99491,-1.81669 1.47165,-2.36699 0.74231,-0.85713 1.881,-1.87228 2.35249,-2.09723 0.0504,-0.0241 0.0922,-0.057 0.0928,-0.0729 6.3e-4,-0.0161 0.0168,-0.0297 0.0359,-0.0304 0.0192,-7.3e-4 0.14185,-0.0683 0.27267,-0.14979 0.31151,-0.1946 0.97014,-0.52414 1.33077,-0.66597 0.52964,-0.20823 0.96617,-0.36487 1.11877,-0.4013 0.0833,-0.0199 0.22765,-0.0554 0.3208,-0.0789 0.87577,-0.22082 2.1183,-0.33259 3.00218,-0.27036"
                     id="path3"
                     inkscape:connector-curvature="0"
                     style="fill:none;fill-opacity:1;fill-rule:evenodd;stroke:none;stroke-width:0.13978906" />
                </g>
              </g>
            </g>
          </g>
        </g>
      </g>
    </g>
  </g>
</svg>
